<?xml version="1.0" standalone="no"?>
<!DOCTYPE svg PUBLIC "-//W3C//DTD SVG 20010904//EN"
 "http://www.w3.org/TR/2001/REC-SVG-20010904/DTD/svg10.dtd">
<svg version="1.0" xmlns="http://www.w3.org/2000/svg"
 width="700.000000pt" height="700.000000pt" viewBox="0 0 700.000000 700.000000"
 preserveAspectRatio="xMidYMid meet">
<metadata>
Created by potrace 1.14, written by Peter Selinger 2001-2017
</metadata>
<g transform="translate(0.000000,700.000000) scale(0.100000,-0.100000)"
fill="#000000" stroke="none">
<path d="M2605 6913 c-21 -49 -48 -110 -60 -138 -13 -27 -75 -171 -140 -320
-64 -148 -125 -288 -135 -310 -11 -22 -65 -146 -120 -275 -56 -129 -108 -248
-115 -265 -46 -101 -105 -236 -105 -239 0 -3 -16 -39 -35 -80 -19 -42 -35 -78
-35 -81 0 -2 -12 -30 -26 -62 -15 -32 -64 -143 -109 -248 -45 -104 -92 -210
-103 -235 -11 -25 -37 -83 -57 -130 -36 -85 -55 -128 -80 -185 -8 -16 -22 -50
-33 -75 -77 -176 -196 -450 -207 -475 -32 -69 -125 -287 -125 -291 0 -2 342
-4 760 -4 418 0 760 -2 760 -4 0 -4 -68 -160 -102 -236 -11 -25 -49 -110 -83
-190 -84 -195 -303 -698 -320 -735 -18 -40 -122 -277 -145 -330 -4 -11 -17
-40 -28 -65 -11 -25 -75 -171 -142 -325 -66 -154 -127 -293 -134 -310 -8 -16
-24 -52 -36 -80 -12 -27 -28 -63 -36 -80 -13 -30 -227 -522 -351 -810 -36 -82
-74 -170 -86 -195 -11 -25 -28 -65 -39 -90 l-19 -44 22 19 c12 11 39 36 59 55
73 70 435 416 490 470 70 68 397 380 465 445 28 26 109 104 181 174 115 110
404 388 559 536 28 28 141 136 250 240 109 105 219 210 245 235 133 127 440
422 490 470 31 30 139 134 240 230 100 96 224 215 274 263 50 48 158 152 240
230 82 78 176 168 210 201 304 292 488 468 581 557 297 286 344 331 399 383
l60 56 -762 0 c-419 0 -762 1 -762 3 0 4 65 154 99 231 10 23 33 75 51 116 17
41 41 95 52 120 12 25 33 74 48 110 37 87 301 692 334 764 14 31 26 59 26 61
0 2 11 28 24 57 13 29 92 211 176 403 84 193 158 364 165 380 8 17 28 61 44
99 17 38 31 73 31 77 0 5 -616 9 -1384 9 l-1384 0 -37 -87z"/>
</g>
</svg>
